<?xml version="1.0" encoding="utf-8"?>
<!-- Generator: Adobe Illustrator 24.0.2, SVG Export Plug-In . SVG Version: 6.00 Build 0)  -->
<svg version="1.1" id="Layer_1" xmlns="http://www.w3.org/2000/svg" xmlns:xlink="http://www.w3.org/1999/xlink" x="0px" y="0px"
	 viewBox="0 0 72 73.5" style="enable-background:new 0 0 72 73.5;" xml:space="preserve">
<style type="text/css">
	.st0{fill:#222246;}
	.st1{fill:#FFFFFF;}
</style>
<title>Asset 1</title>
<g id="Layer_2_1_">
	<g id="Layer_1-2">
		<path class="st0" d="M36,0L36,0c19.9,0,36,16.1,36,36v1.5c0,19.9-16.1,36-36,36l0,0c-19.9,0-36-16.1-36-36V36C0,16.1,16.1,0,36,0z
			"/>
		<path class="st1" d="M29.5,54.4c3-1.7,4.5-2.6,6.1-2.5c2.4,0,2.9,1.8,5.7,2.9c3,1.1,7.7,1,9.5-1.1c4.1-4.8-7.9-18.1-9.9-20.3
			c-1-1.2-2.7-2.9-4.9-2.9c-1,0-2.5,0.3-5.3,2.9c-2.5,2.3-4.6,6.7-8.7,15.2c-0.8,1.3-1,2.9-0.8,4.4c0.4,1.8,1.9,3.2,3.8,3.6
			C26.2,56.7,26.7,56,29.5,54.4z"/>
		<ellipse transform="matrix(0.7471 -0.6647 0.6647 0.7471 -17.4533 21.9902)" class="st1" cx="20.2" cy="33.9" rx="5.3" ry="6.5"/>
		<ellipse transform="matrix(0.9852 -0.1714 0.1714 0.9852 -3.6456 5.4137)" class="st1" cx="29.5" cy="23.8" rx="5.3" ry="7.2"/>
		<ellipse transform="matrix(0.2304 -0.9731 0.9731 0.2304 8.9627 60.9081)" class="st1" cx="43" cy="24.8" rx="6.7" ry="5.9"/>
		<ellipse transform="matrix(0.7285 -0.6851 0.6851 0.7285 -8.8071 44.7718)" class="st1" cx="52.1" cy="33.5" rx="6.5" ry="5.2"/>
	</g>
</g>
</svg>
