<svg xmlns="http://www.w3.org/2000/svg" viewBox="0 0 325 324.77"><defs><style>.cls-1{fill:#222246;}.cls-2,.cls-3{fill:#fff;}.cls-2{stroke:#fff;stroke-miterlimit:10;}.cls-3{font-size:36px;font-family:MyriadPro-Regular, Myriad Pro;}.cls-4{letter-spacing:0.04em;}.cls-5{letter-spacing:0em;}</style></defs><title>Asset 6</title><g id="Layer_2" data-name="Layer 2"><g id="Layer_1-2" data-name="Layer 1"><rect class="cls-1" width="325" height="324.77"/><g id="Layer_2-2" data-name="Layer 2"><g id="Layer_1-2-2" data-name="Layer 1-2"><path class="cls-2" d="M158,131h0a58.12,58.12,0,0,1,58.16,58.16v2.42A58.12,58.12,0,0,1,158,249.76h0a58.13,58.13,0,0,1-58.17-58.17v-2.42A58.13,58.13,0,0,1,158,131Z"/><path class="cls-1" d="M147.45,218.9c4.84-2.75,7.27-4.2,9.85-4,3.88,0,4.69,2.91,9.21,4.69,4.85,1.77,12.44,1.61,15.35-1.78,6.62-7.76-12.76-29.25-16-32.8-1.61-1.94-4.36-4.68-7.91-4.68-1.62,0-4,.48-8.57,4.68-4,3.72-7.43,10.83-14,24.56a10.84,10.84,0,0,0-1.29,7.11,7.8,7.8,0,0,0,6.14,5.81C142.11,222.61,142.92,221.48,147.45,218.9Z"/><ellipse class="cls-1" cx="132.37" cy="185.76" rx="8.56" ry="10.5" transform="translate(-90 134.97) rotate(-41.66)"/><ellipse class="cls-1" cx="147.44" cy="169.47" rx="8.56" ry="11.63" transform="translate(-26.87 27.78) rotate(-9.87)"/><ellipse class="cls-1" cx="169.26" cy="171.04" rx="10.82" ry="9.53" transform="translate(-36.18 296.34) rotate(-76.68)"/><ellipse class="cls-1" cx="183.96" cy="185.1" rx="10.5" ry="8.4" transform="translate(-76.86 176.29) rotate(-43.24)"/></g></g><text class="cls-3" transform="translate(113.16 79.57)">KI<tspan class="cls-4" x="28.12" y="0">T</tspan><tspan class="cls-5" x="47.38" y="0">TIO</tspan></text></g></g></svg>